<svg xmlns="http://www.w3.org/2000/svg" width="512" height="512" viewBox="0 0 512 512">
  <defs>
    <linearGradient id="g" x1="0" y1="0" x2="1" y2="1">
      <stop offset="0" stop-color="#6366f1"/>
      <stop offset="1" stop-color="#4f46e5"/>
    </linearGradient>
  </defs>
  <rect width="512" height="512" rx="112" fill="#0f172a"/>
  <rect x="96" y="112" width="320" height="288" rx="48" fill="url(#g)" opacity="0.16"/>
  <path fill="url(#g)" d="M176 192c0-17.673 14.327-32 32-32h32v-16c0-17.673 14.327-32 32-32h48c17.673 0 32 14.327 32 32v16h32c17.673 0 32 14.327 32 32v160c0 17.673-14.327 32-32 32H208c-17.673 0-32-14.327-32-32V192zm96-48v16h80v-16c0-8.837-7.163-16-16-16h-48c-8.837 0-16 7.163-16 16zm-80 64c0-8.837 7.163-16 16-16h208c8.837 0 16 7.163 16 16v16H192v-16zm0 48h240v112c0 8.837-7.163 16-16 16H208c-8.837 0-16-7.163-16-16V256z"/>
  <path fill="#e0e7ff" opacity="0.9" d="M224 296h64c8.837 0 16 7.163 16 16s-7.163 16-16 16h-64c-8.837 0-16-7.163-16-16s7.163-16 16-16zm0 48h128c8.837 0 16 7.163 16 16s-7.163 16-16 16H224c-8.837 0-16-7.163-16-16s7.163-16 16-16z"/>
</svg>
